<svg id="SvgjsSvg1001" width="288" height="288" xmlns="http://www.w3.org/2000/svg" version="1.1" xmlns:xlink="http://www.w3.org/1999/xlink" xmlns:svgjs="http://svgjs.com/svgjs"><defs id="SvgjsDefs1002"></defs><g id="SvgjsG1008" transform="matrix(1,0,0,1,0,0)"><svg xmlns="http://www.w3.org/2000/svg" enable-background="new 0 0 208 208" viewBox="0 0 208 208" width="288" height="288"><path d="M94 72c19.852 0 36-16.15 36-36S113.852 0 94 0 58 16.15 58 36 74.148 72 94 72zM94 8c15.438 0 28 12.56 28 28s-12.562 28-28 28S66 51.44 66 36 78.562 8 94 8zM162 48c-17.644 0-32 14.356-32 32s14.356 32 32 32 32-14.356 32-32S179.644 48 162 48zM162 104c-13.234 0-24-10.766-24-24s10.766-24 24-24 24 10.766 24 24S175.234 104 162 104zM146 124c-15.438 0-28 12.56-28 28s12.562 28 28 28 28-12.56 28-28S161.438 124 146 124zM146 172c-11.027 0-20-8.973-20-20 0-11.027 8.973-20 20-20 11.027 0 20 8.973 20 20C166 163.027 157.027 172 146 172zM90 160c-13.234 0-24 10.766-24 24s10.766 24 24 24 24-10.766 24-24S103.234 160 90 160zM90 200c-8.824 0-16-7.178-16-16s7.176-16 16-16 16 7.178 16 16S98.824 200 90 200zM34 128c-11.027 0-20 8.973-20 20 0 11.027 8.973 20 20 20s20-8.973 20-20C54 136.973 45.027 128 34 128zM34 160c-6.617 0-12-5.383-12-12s5.383-12 12-12 12 5.383 12 12S40.617 160 34 160zM30 100c8.824 0 16-7.178 16-16s-7.176-16-16-16-16 7.178-16 16S21.176 100 30 100zM30 76c4.41 0 8 3.588 8 8s-3.59 8-8 8-8-3.588-8-8S25.59 76 30 76z" fill="#ffffff" class="color000 svgShape"></path></svg></g></svg>